<svg xmlns="http://www.w3.org/2000/svg" viewBox="-51.616 -29.968 103.6 53.6">
  <path d="M -47.616 19.632 L -34.656 -25.968 M -47.616 19.632 Q -36.096 -25.968 -19.776 -21.648 Q -8.256 -17.808 -30.336 -3.408 Q -19.296 -5.808 -17.376 0.432 Q -15.456 13.392 -34.176 17.712 Q -40.896 18.672 -40.896 15.312 Q -41.376 11.472 -33.696 9.072 Q -28.896 7.632 -21.696 10.992 Q -15.456 15.312 -11.616 15.312 Q -6.816 15.312 -4.896 11.472 M 4.704 -22.128 C 4.704 -8.208 5.664 4.752 8.064 18.672 C 5.184 0.912 12.864 -12.048 15.744 -14.928 C 15.744 -2.448 17.664 7.152 20.064 18.672 C 13.344 -3.408 36.384 -21.168 43.104 -18.288 C 58.464 -11.088 32.544 7.152 34.464 -7.728" stroke="#E9C46A" stroke-width="4" fill="none"/>
</svg>