<svg xmlns="http://www.w3.org/2000/svg" viewBox="-245.872 -169.792 500 298.4">
  <path d="m -232.8716 127.608 l 63.3828 -296.4 m -63.3828 296.4 q 56.3394 -296.4 136.1542 -268.32 q 56.3394 24.96 -51.6438 118.56 q 53.9916 -15.6 63.3828 24.96 q 9.3912 84.24 -82.1626 112.32 q -32.864 6.24 -32.864 -15.6 q -2.3478 -24.96 35.2118 -40.56 q 23.4754 -9.36 58.6872 12.48 q 30.5162 28.08 49.296 28.08 q 23.4754 0 32.864 -24.96 m 46.9508 -218.4 c 0 90.48 4.6956 174.72 16.432 265.2 c -14.0842 -115.44 23.4754 -199.68 37.5596 -218.4 c 0 81.12 9.3912 143.52 21.1276 218.4 c -32.864 -143.52 79.8148 -258.96 112.6788 -240.24 c 75.1192 46.8 -51.6438 165.36 -42.2552 68.64" stroke="#000000" stroke-width="15" fill="none"/>
</svg>