<?xml version="1.0" standalone="no"?>
<!DOCTYPE svg PUBLIC "-//W3C//DTD SVG 20010904//EN"
 "http://www.w3.org/TR/2001/REC-SVG-20010904/DTD/svg10.dtd">
<svg version="1.0" xmlns="http://www.w3.org/2000/svg"
 width="1000.000000pt" height="1000.000000pt" viewBox="0 0 1000.000000 1000.000000"
 preserveAspectRatio="xMidYMid meet">
<metadata>
Created by potrace 1.14, written by Peter Selinger 2001-2017
</metadata>
<g transform="translate(0.000000,1000.000000) scale(0.100000,-0.100000)"
fill="#000000" stroke="none">
<path d="M1373 7968 c-1 -20 -13 -90 -17 -97 -2 -3 -7 -24 -10 -46 -4 -22 -13
-64 -21 -95 -7 -30 -16 -68 -19 -85 -3 -16 -8 -43 -12 -60 -4 -16 -8 -40 -8
-52 -1 -13 -4 -23 -7 -23 -3 0 -6 -6 -6 -12 0 -7 -10 -56 -21 -108 -11 -52
-23 -106 -26 -120 -2 -14 -12 -59 -21 -100 -9 -41 -18 -86 -20 -100 -2 -14 -4
-25 -5 -25 -1 0 -3 -7 -5 -15 -10 -47 -16 -73 -20 -97 -3 -16 -8 -35 -10 -43
-3 -8 -7 -33 -11 -55 -3 -22 -8 -43 -10 -46 -2 -3 -6 -21 -9 -40 -3 -19 -11
-54 -16 -79 -6 -25 -12 -54 -15 -65 -2 -11 -26 -126 -54 -255 -28 -129 -67
-309 -86 -400 -19 -91 -37 -172 -39 -180 -2 -12 -38 -182 -50 -240 -2 -8 -15
-68 -29 -132 -14 -64 -27 -127 -30 -140 -2 -13 -12 -57 -21 -98 -33 -151 -41
-188 -55 -265 -11 -53 -13 -65 -29 -130 -5 -22 -12 -51 -15 -65 -2 -14 -9 -45
-15 -70 -5 -25 -12 -56 -15 -70 -2 -14 -14 -70 -26 -125 -11 -55 -22 -109 -25
-120 -2 -11 -4 -20 -5 -20 -2 0 -4 -12 -15 -75 -6 -32 -19 -92 -45 -205 -5
-22 -12 -53 -14 -70 -4 -28 -50 -234 -61 -280 -3 -11 -8 -31 -10 -45 -3 -14
-23 -99 -45 -190 -22 -91 -43 -178 -46 -195 -3 -16 -10 -48 -15 -70 -5 -22
-11 -49 -13 -60 -2 -11 -14 -65 -26 -120 -12 -55 -24 -111 -27 -125 -2 -14
-11 -54 -19 -90 -8 -36 -17 -81 -20 -100 -3 -19 -7 -43 -10 -52 -9 -29 -16
-62 -20 -93 -2 -16 -15 -84 -29 -150 -13 -66 -27 -135 -30 -154 -3 -18 -7 -36
-9 -40 -2 -3 -7 -27 -10 -53 -4 -26 -9 -56 -13 -65 -3 -10 -3 -15 1 -12 4 4
28 2 54 -3 26 -5 58 -11 72 -14 14 -3 36 -7 50 -10 14 -3 46 -8 72 -11 l46 -5
13 58 c7 33 13 61 14 64 2 6 17 81 20 100 2 8 8 33 14 55 5 22 13 56 16 75 3
19 15 76 26 125 11 50 22 99 24 110 3 12 14 63 25 115 11 52 23 106 25 120 4
19 23 107 30 140 1 6 13 65 19 95 2 11 16 74 30 140 15 66 31 143 37 170 6 28
17 77 24 110 8 33 17 76 21 95 3 19 7 40 8 45 14 52 25 96 68 270 27 110 51
207 53 215 2 8 14 49 25 90 12 41 23 82 25 91 2 8 11 40 20 70 9 30 18 63 21
74 2 11 12 49 23 85 11 36 31 106 46 155 87 296 202 638 295 880 34 88 68 180
77 205 9 25 21 48 27 52 6 4 8 8 4 8 -6 0 28 81 106 255 15 33 50 105 78 160
47 92 64 126 135 255 14 25 38 64 54 88 16 24 29 45 29 47 0 3 25 40 55 82 30
43 60 87 67 97 52 78 199 234 283 301 28 22 52 42 55 46 10 11 109 68 152 87
119 55 265 71 388 44 146 -31 300 -141 349 -247 35 -74 36 -185 5 -295 -27
-92 -87 -224 -140 -308 -19 -29 -34 -55 -34 -58 0 -2 -4 -10 -10 -17 -5 -7
-53 -70 -106 -142 -54 -71 -100 -132 -103 -135 -3 -3 -28 -32 -56 -65 -81 -97
-159 -179 -356 -375 -184 -184 -238 -235 -379 -360 -40 -36 -93 -83 -117 -105
l-44 -40 26 -37 c14 -21 23 -38 19 -38 -3 0 -2 -6 4 -12 5 -7 20 -31 32 -53
12 -22 31 -56 42 -76 l20 -36 72 18 c39 10 83 20 99 23 66 14 79 16 105 21 43
7 183 18 227 17 226 -5 376 -75 474 -222 90 -135 115 -251 114 -530 0 -168 -6
-218 -49 -448 -3 -13 -12 -44 -21 -70 -8 -26 -16 -51 -17 -57 -8 -44 -83 -213
-128 -287 l-29 -47 -72 43 c-190 112 -468 222 -612 242 -22 3 -58 10 -79 14
-42 9 -283 6 -331 -4 -16 -4 -48 -12 -70 -18 -22 -6 -44 -12 -50 -14 -82 -18
-442 -207 -485 -254 -3 -3 -27 -23 -55 -45 -88 -71 -148 -137 -208 -233 -38
-58 -78 -146 -79 -169 0 -5 -4 -15 -9 -25 -30 -56 -30 -308 1 -413 49 -164
199 -287 383 -312 99 -14 270 -8 397 13 49 8 322 101 400 136 36 16 65 29 65
29 0 0 10 2 23 5 12 4 22 11 22 17 0 6 3 7 6 4 9 -8 231 108 349 182 130 82
275 194 373 291 l83 81 42 -33 c23 -18 44 -35 47 -38 12 -12 121 -90 185 -132
163 -107 326 -179 465 -208 95 -20 252 -20 335 0 28 6 57 13 65 15 56 12 168
69 239 120 39 29 181 177 181 190 0 2 15 28 34 57 31 49 64 116 85 172 9 22 5
25 -62 51 -40 15 -86 34 -104 41 -17 8 -35 14 -40 14 -4 0 -20 6 -34 14 -26
13 -27 13 -45 -28 -70 -158 -154 -256 -269 -312 -83 -40 -122 -48 -235 -47
-118 0 -198 28 -385 132 -46 25 -194 129 -257 180 -55 43 -72 71 -46 71 6 0 9
3 5 6 -3 4 4 21 17 38 21 27 119 221 116 228 0 2 12 35 28 73 24 59 33 85 47
135 5 18 46 201 50 225 37 194 37 614 0 753 -7 29 -10 52 -7 52 3 0 1 5 -6 12
-7 7 -12 18 -12 26 0 22 -74 175 -113 234 -40 59 -132 158 -147 158 -6 0 -10
4 -10 9 0 5 -28 27 -62 49 -136 84 -306 132 -484 134 -35 1 -64 4 -64 7 0 3
60 65 133 137 147 145 256 259 334 349 29 33 66 76 83 95 53 60 225 291 275
370 81 126 152 270 189 380 44 131 46 144 51 259 10 241 -82 425 -288 574 -45
33 -181 107 -196 107 -6 0 -22 5 -38 12 -32 13 -27 11 -78 23 -59 12 -81 15
-180 18 -284 11 -542 -108 -799 -366 -66 -67 -128 -131 -136 -142 -8 -12 -31
-41 -51 -65 -83 -105 -269 -393 -269 -418 0 -6 -4 -12 -9 -14 -5 -1 -36 -57
-70 -123 -59 -117 -68 -120 -41 -15 5 19 11 49 13 65 4 24 38 181 73 340 2 11
7 36 10 55 3 19 8 38 10 41 2 3 6 20 9 38 3 17 21 103 40 191 19 88 37 174 40
192 4 18 11 51 16 73 6 22 12 53 14 68 3 16 7 32 10 37 3 4 7 27 10 50 3 24 8
46 10 50 3 4 7 25 11 46 3 22 10 57 16 79 11 43 12 49 23 112 6 39 5 43 -17
48 -208 47 -274 55 -275 33z m751 -4682 c108 -24 248 -76 380 -142 170 -85
164 -73 77 -156 -234 -220 -549 -397 -941 -528 -132 -44 -187 -54 -321 -54
-147 0 -216 29 -240 101 -19 59 -14 210 9 275 62 175 234 321 545 463 140 64
316 78 491 41z"/>
<path d="M5345 7462 l-120 -3 1 -157 c1 -86 4 -343 5 -569 2 -227 6 -413 9
-413 3 0 6 -62 6 -138 2 -213 25 -833 39 -1047 3 -44 7 -125 10 -180 2 -55 7
-136 10 -180 6 -84 13 -185 20 -295 6 -102 14 -220 21 -285 3 -33 7 -85 9
-115 2 -30 6 -86 9 -125 4 -38 9 -99 12 -135 2 -36 7 -83 9 -105 4 -38 11
-111 20 -228 4 -49 8 -82 20 -187 2 -25 7 -79 10 -120 3 -41 8 -84 11 -95 2
-11 6 -42 8 -70 4 -53 23 -234 31 -297 3 -21 7 -55 10 -75 2 -21 7 -58 11 -83
3 -25 7 -63 9 -85 2 -22 6 -56 9 -75 3 -19 10 -76 16 -125 6 -50 13 -100 15
-110 2 -11 4 -24 4 -28 1 -5 5 -6 9 -3 5 3 33 8 63 11 164 17 213 26 221 38 4
6 5 14 3 17 -6 10 -28 225 -39 375 -25 349 -26 877 -1 1180 4 53 12 144 21
235 5 60 5 60 29 235 17 127 22 165 30 205 3 14 7 41 10 60 3 19 11 62 17 95
6 33 12 69 14 80 2 18 13 71 28 135 3 14 15 68 27 120 25 109 47 197 84 325
14 50 27 97 29 105 2 8 19 60 37 115 18 55 34 105 35 110 1 6 29 83 63 171 33
89 61 168 61 175 0 7 3 9 7 5 4 -4 8 -37 9 -74 2 -37 3 -67 4 -67 1 0 3 -49 5
-110 4 -102 7 -165 20 -385 3 -47 8 -121 10 -165 3 -44 7 -105 10 -135 2 -30
7 -86 10 -125 10 -123 21 -245 30 -330 3 -22 7 -67 10 -100 2 -33 7 -76 9 -95
3 -19 7 -60 11 -90 3 -30 7 -68 9 -85 2 -16 7 -61 11 -100 4 -38 8 -77 10 -85
2 -8 6 -44 10 -80 3 -36 8 -72 10 -80 2 -8 7 -42 10 -75 3 -33 7 -71 10 -85 2
-14 7 -45 10 -70 3 -25 7 -54 9 -65 2 -11 7 -42 10 -70 6 -47 13 -99 21 -155
2 -14 7 -47 10 -75 3 -27 10 -75 15 -105 13 -78 20 -130 26 -170 2 -19 6 -46
9 -60 8 -44 16 -109 20 -163 2 -29 6 -68 9 -87 3 -19 8 -55 11 -80 3 -25 7
-56 9 -70 3 -14 7 -41 10 -60 10 -66 18 -112 22 -134 3 -11 7 -32 10 -46 4
-22 14 -69 20 -92 1 -5 2 -14 3 -22 1 -13 34 -11 126 9 33 7 70 13 130 24 36
6 39 9 38 36 -2 34 -16 119 -28 180 -1 6 -5 30 -8 55 -8 58 -18 121 -33 222
-3 18 -7 47 -9 63 -2 17 -7 41 -10 55 -18 76 -25 597 -12 761 15 168 37 335
63 474 37 192 44 226 49 235 2 4 7 22 10 41 3 19 13 59 22 89 9 30 18 62 19
70 19 96 150 456 236 650 29 65 162 334 168 340 3 3 14 23 25 45 11 22 22 42
25 45 3 3 36 57 74 120 102 168 241 360 396 545 32 39 296 303 335 335 58 49
194 150 201 150 4 0 17 8 28 19 31 27 172 97 252 125 45 15 94 24 137 24 57 0
73 -4 114 -30 91 -57 205 -164 248 -232 10 -17 22 -33 26 -36 9 -7 60 -108 65
-129 2 -9 13 -49 24 -90 16 -62 19 -97 16 -200 -2 -69 -7 -137 -11 -151 -3
-14 -9 -38 -11 -54 -10 -52 -65 -199 -105 -279 -135 -268 -345 -495 -557 -599
-75 -38 -94 -43 -153 -43 -58 0 -71 4 -93 24 -67 63 -100 204 -95 413 3 109 1
132 -11 133 -8 2 -46 5 -85 9 -38 3 -98 9 -132 12 -35 4 -63 3 -64 -2 0 -5 -2
-25 -4 -44 -5 -46 -5 -245 -1 -290 8 -86 19 -147 29 -165 6 -11 9 -20 7 -20
-2 0 3 -18 10 -40 49 -151 157 -268 290 -313 91 -31 246 -24 350 16 14 5 28
10 33 11 13 2 141 73 187 105 100 68 250 207 328 305 39 49 49 61 70 85 6 8
12 19 12 25 0 5 4 11 8 13 15 5 126 198 170 295 37 80 76 190 87 242 2 9 8 36
15 61 15 61 24 126 24 182 1 27 3 48 6 48 11 0 -3 178 -21 268 -14 72 -54 183
-89 251 -32 61 -62 113 -70 121 -3 3 -18 22 -33 43 -86 114 -279 276 -382 319
-93 39 -211 49 -315 27 -29 -6 -59 -12 -68 -14 -9 -2 -18 -4 -19 -5 -2 -2 -6
-3 -10 -4 -47 -11 -206 -82 -288 -129 -32 -19 -168 -110 -185 -125 -8 -7 -44
-36 -80 -64 -192 -154 -453 -431 -615 -654 -11 -15 -24 -32 -30 -38 -37 -40
-229 -344 -317 -501 -21 -38 -169 -336 -196 -395 -29 -63 -103 -242 -108 -260
-2 -8 -18 -53 -35 -100 -38 -105 -101 -309 -139 -455 -16 -60 -29 -99 -30 -85
-1 14 -4 39 -5 55 -2 17 -6 57 -9 90 -3 33 -8 80 -11 105 -3 25 -7 72 -10 105
-3 33 -8 80 -10 105 -8 79 -15 163 -20 230 -2 36 -7 98 -10 138 -3 40 -7 112
-10 160 -3 48 -7 121 -9 162 -17 257 -26 626 -28 1113 0 218 -3 396 -5 394 -2
-2 -68 -91 -148 -198 -79 -107 -148 -198 -152 -204 -5 -5 -22 -32 -38 -60 -17
-27 -36 -59 -43 -70 -26 -44 -153 -306 -192 -398 -58 -139 -177 -465 -195
-537 -2 -8 -20 -71 -40 -140 -21 -69 -39 -136 -42 -150 -2 -14 -11 -49 -20
-79 -8 -29 -17 -61 -18 -70 -2 -9 -4 -17 -5 -18 -3 -4 -5 -10 -15 -63 -5 -25
-9 -47 -10 -50 -1 -3 -4 -18 -8 -35 -4 -16 -9 -41 -12 -55 -3 -14 -8 -38 -12
-55 -9 -41 -11 -53 -19 -107 -7 -49 -22 -67 -21 -25 0 12 -3 74 -7 137 -19
307 -42 778 -51 1060 -15 459 -23 867 -25 1307 l-2 301 -31 4 c-18 1 -86 2
-152 0z"/>
</g>
</svg>
